HIERARCHY
ROOT Hips
{
	OFFSET 0.00000 0.00000 0.00000
	CHANNELS 6 Xposition Yposition Zposition Zrotation Yrotation Xrotation 
	JOINT LHipJoint
	{
		OFFSET 0 0 0
		CHANNELS 3 Zrotation Yrotation Xrotation
		JOINT LeftUpLeg
		{
			OFFSET 1.78158 -1.79992 1.25746
			CHANNELS 3 Zrotation Yrotation Xrotation
			JOINT LeftLeg
			{
				OFFSET 2.48433 -6.82566 0.00000
				CHANNELS 3 Zrotation Yrotation Xrotation
				JOINT LeftFoot
				{
					OFFSET 2.69722 -7.41057 0.00000
					CHANNELS 3 Zrotation Yrotation Xrotation
					JOINT LeftToeBase
					{
						OFFSET 0.10733 -0.29489 1.75071
						CHANNELS 3 Zrotation Yrotation Xrotation
						End Site
						{
							OFFSET 0.00000 -0.00000 0.90224
						}
					}
				}
			}
		}
	}
	JOINT RHipJoint
	{
		OFFSET 0 0 0
		CHANNELS 3 Zrotation Yrotation Xrotation
		JOINT RightUpLeg
		{
			OFFSET -1.91234 -1.79993 1.25746
			CHANNELS 3 Zrotation Yrotation Xrotation
			JOINT RightLeg
			{
				OFFSET -2.33122 -6.40498 0.00000
				CHANNELS 3 Zrotation Yrotation Xrotation
				JOINT RightFoot
				{
					OFFSET -2.75667 -7.57390 0.00000
					CHANNELS 3 Zrotation Yrotation Xrotation
					JOINT RightToeBase
					{
						OFFSET -0.15946 -0.43811 1.78925
						CHANNELS 3 Zrotation Yrotation Xrotation
						End Site
						{
							OFFSET -0.00000 -0.00000 0.93158
						}
					}
				}
			}
		}
	}
	JOINT LowerBack
	{
		OFFSET 0 0 0
		CHANNELS 3 Zrotation Yrotation Xrotation
		JOINT Spine
		{
			OFFSET -0.02267 2.03993 -0.26238
			CHANNELS 3 Zrotation Yrotation Xrotation
			JOINT Spine1
			{
				OFFSET 0.02263 2.06220 -0.00892
				CHANNELS 3 Zrotation Yrotation Xrotation
				JOINT Neck
				{
					OFFSET 0 0 0
					CHANNELS 3 Zrotation Yrotation Xrotation
					JOINT Neck1
					{
						OFFSET -0.06177 1.95978 0.28606
						CHANNELS 3 Zrotation Yrotation Xrotation
						JOINT Head
						{
							OFFSET 0.08482 1.96576 -0.43252
							CHANNELS 3 Zrotation Yrotation Xrotation
							End Site
							{
								OFFSET 0.02787 2.02739 -0.18071
							}
						}
					}
				}
				JOINT LeftShoulder
				{
					OFFSET 0 0 0
					CHANNELS 3 Zrotation Yrotation Xrotation
					JOINT LeftArm
					{
						OFFSET 3.80978 1.64906 0.29973
						CHANNELS 3 Zrotation Yrotation Xrotation
						JOINT LeftForeArm
						{
							OFFSET 4.93042 -0.00000 0.00000
							CHANNELS 3 Zrotation Yrotation Xrotation
							JOINT LeftHand
							{
								OFFSET 3.68177 -0.00000 0.00000
								CHANNELS 3 Zrotation Yrotation Xrotation
								JOINT LeftFingerBase
								{
									OFFSET 0 0 0
									CHANNELS 3 Zrotation Yrotation Xrotation
									JOINT LeftHandIndex1
									{
										OFFSET 0.72148 -0.00000 0.00000
										CHANNELS 3 Zrotation Yrotation Xrotation
										End Site
										{
											OFFSET 0.58168 -0.00000 0.00000
										}
									}
								}
								JOINT LThumb
								{
									OFFSET 0 0 0
									CHANNELS 3 Zrotation Yrotation Xrotation
									End Site
									{
										OFFSET 0.59056 -0.00000 0.59056
									}
								}
							}
						}
					}
				}
				JOINT RightShoulder
				{
					OFFSET 0 0 0
					CHANNELS 3 Zrotation Yrotation Xrotation
					JOINT RightArm
					{
						OFFSET -3.49270 1.85636 0.09297
						CHANNELS 3 Zrotation Yrotation Xrotation
						JOINT RightForeArm
						{
							OFFSET -5.07905 -0.00000 -0.00000
							CHANNELS 3 Zrotation Yrotation Xrotation
							JOINT RightHand
							{
								OFFSET -3.54394 -0.00000 0.00000
								CHANNELS 3 Zrotation Yrotation Xrotation
								JOINT RightFingerBase
								{
									OFFSET 0 0 0
									CHANNELS 3 Zrotation Yrotation Xrotation
									JOINT RightHandIndex1
									{
										OFFSET -0.68116 -0.00000 0.00000
										CHANNELS 3 Zrotation Yrotation Xrotation
										End Site
										{
											OFFSET -0.54917 -0.00000 0.00000
										}
									}
								}
								JOINT RThumb
								{
									OFFSET 0 0 0
									CHANNELS 3 Zrotation Yrotation Xrotation
									End Site
									{
										OFFSET -0.55755 -0.00000 0.55755
									}
								}
							}
						}
					}
				}
			}
		}
	}
}
MOTION
Frames: 13
Frame Time: .0083333
-9.7105 17.8888 -16.6624 147.5910 91.7046 151.2110 0.0000 0.0000 0.0000 -13.0749 -17.4156 -0.0696 1.3785 7.4297 20.9948 1.8286 3.1434 -26.8332 0.5767 -4.8630 -13.5182 0.0000 0.0000 0.0000 12.4734 -4.0358 6.0871 0.0000 -0.0000 0.0000 0.3847 -14.6440 -15.8057 -0.0026 0.3307 -0.9087 0.4925 0.8404 1.0309 1.6417 1.2176 -2.6911 1.3632 0.6323 -3.3688 -6.6816 -4.3233 -23.0228 4.7528 -4.9091 30.0297 2.1837 -2.0390 14.5112 0.0000 -0.0000 0.0000 -81.8855 -5.4973 63.6950 100.8643 -59.5493 -69.3945 -0.0000 0.0000 -58.5638 40.3130 14.2026 11.7592 -7.1250 0.0000 -0.0000 12.5203 47.9383 0.9212 0.0000 -0.0000 0.0000 80.1272 1.5546 49.2555 -107.9962 58.7402 -75.5192 0.0000 -0.0000 -8.6139 -46.6517 -34.9247 31.2367 7.1250 -0.0000 -0.0000 -25.8207 -74.1434 18.0758
-9.7055 17.8960 -16.6732 149.8350 91.7697 153.6270 0.0000 0.0000 0.0000 -12.9866 -16.9762 -0.4229 1.3712 7.4107 20.9379 1.8131 2.7427 -26.5469 0.5472 -4.7391 -13.1658 0.0000 0.0000 0.0000 12.4350 -3.8956 5.8933 0.0000 0.0000 -0.0000 0.4096 -14.7765 -15.6608 -0.0050 0.4545 -1.2489 0.5126 0.8575 1.0663 1.6617 1.2457 -2.7780 1.3704 0.6470 -3.4794 -6.6427 -4.3179 -23.1085 4.5875 -4.8547 30.1280 2.1205 -2.0338 14.5629 -0.0000 0.0000 0.0000 -82.0617 -5.8903 63.2060 101.1251 -59.5271 -69.6194 -0.0000 0.0000 -58.7198 40.2670 14.5015 11.9756 -7.1250 0.0000 -0.0000 12.5022 48.3000 1.0328 -0.0000 0.0000 0.0000 80.1073 2.5910 49.2145 -107.3117 58.8367 -74.9338 0.0000 -0.0000 -8.8261 -46.2473 -34.8944 30.8597 7.1250 -0.0000 -0.0000 -24.8356 -73.9883 17.2843
-9.7009 17.9020 -16.6832 152.4490 91.8668 156.3850 0.0000 0.0000 0.0000 -12.9238 -16.5679 -0.7350 1.3673 7.4006 20.9077 1.7999 2.3829 -26.2994 0.5087 -4.5718 -12.6911 0.0000 0.0000 0.0000 12.3966 -3.7267 5.7286 0.0000 -0.0000 0.0000 0.4371 -14.9201 -15.4948 -0.0089 0.6085 -1.6722 0.4934 0.8768 1.1282 1.7046 1.2763 -2.8537 1.4225 0.6644 -3.5949 -6.4399 -4.2603 -23.2911 4.2086 -4.7093 30.3104 1.9593 -2.0001 14.6547 -0.0000 0.0000 0.0000 -82.2260 -6.3353 62.7297 101.3080 -59.5113 -69.7769 -0.0000 0.0000 -58.7718 40.2941 14.7669 12.1949 -7.1250 0.0000 -0.0000 12.5551 48.6337 1.1418 -0.0000 0.0000 0.0000 80.0201 3.6109 49.2465 -106.5307 58.9419 -74.2652 0.0000 -0.0000 -9.0991 -45.9535 -34.9299 30.6236 7.1250 -0.0000 -0.0000 -24.1521 -73.9375 16.7690
-9.6971 17.9073 -16.6924 155.1390 91.9852 159.1920 0.0000 0.0000 0.0000 -12.8850 -16.1883 -1.0103 1.3667 7.3991 20.9032 1.7821 2.1154 -26.0619 0.4785 -4.4359 -12.3064 0.0000 0.0000 0.0000 12.3574 -3.5420 5.5919 0.0000 -0.0000 0.0000 0.4676 -15.0815 -15.3115 -0.0153 0.7995 -2.1974 0.4611 0.8928 1.2004 1.7489 1.3015 -2.9076 1.4836 0.6793 -3.6940 -6.1125 -4.1530 -23.5343 3.7110 -4.4955 30.5324 1.7407 -1.9396 14.7668 -0.0000 -0.0000 0.0000 -82.3353 -6.8547 62.2814 101.3936 -59.5038 -69.8507 -0.0000 0.0000 -58.7079 40.3925 14.9754 12.3999 -7.1250 0.0000 -0.0000 12.6762 48.9107 1.2408 -0.0000 -0.0000 0.0000 79.9321 4.6032 49.3238 -105.6515 59.0538 -73.5115 0.0000 -0.0000 -9.4427 -45.7380 -35.0380 30.5025 7.1250 -0.0000 -0.0000 -23.6806 -73.9898 16.4585
-9.6940 17.9127 -16.7007 157.5050 92.1043 161.6550 0.0000 0.0000 0.0000 -12.8565 -15.8246 -1.2678 1.3684 7.4036 20.9166 1.7546 1.9484 -25.7979 0.4690 -4.3924 -12.1835 0.0000 0.0000 0.0000 12.3208 -3.3642 5.4727 0.0000 0.0000 -0.0000 0.4996 -15.2551 -15.1268 -0.0245 1.0114 -2.7802 0.4521 0.9030 1.2644 1.7706 1.3177 -2.9357 1.5091 0.6884 -3.7606 -5.7641 -4.0244 -23.7724 3.2562 -4.2744 30.7267 1.5365 -1.8681 14.8684 -0.0000 -0.0000 0.0000 -82.3580 -7.4625 61.8699 101.3754 -59.5054 -69.8350 -0.0000 0.0000 -58.5536 40.5304 15.0976 12.5547 -7.1250 0.0000 -0.0000 12.8306 49.0889 1.3134 -0.0000 -0.0000 0.0000 79.8781 5.5595 49.4323 -104.7650 59.1600 -72.7508 0.0000 -0.0000 -9.9095 -45.5559 -35.2343 30.4651 7.1250 -0.0000 -0.0000 -23.3109 -74.1479 16.2722
-9.6917 17.9188 -16.7082 159.2530 92.2040 163.4910 0.0000 0.0000 0.0000 -12.8209 -15.4647 -1.5273 1.3710 7.4102 20.9366 1.7168 1.8483 -25.4862 0.4828 -4.4556 -12.3622 0.0000 0.0000 0.0000 12.2928 -3.2142 5.3586 0.0000 -0.0000 0.0000 0.5297 -15.4240 -14.9625 -0.0353 1.2134 -3.3361 0.4950 0.9097 1.3070 1.7553 1.3281 -2.9424 1.4681 0.6920 -3.7905 -5.5165 -3.9180 -23.9388 2.9959 -4.1186 30.8330 1.4167 -1.8092 14.9290 0.0000 -0.0000 0.0000 -82.2914 -8.1596 61.4938 101.2488 -59.5164 -69.7259 -0.0000 0.0000 -58.3611 40.6555 15.1195 12.6258 -7.1250 0.0000 -0.0000 12.9626 49.1406 1.3441 0.0000 -0.0000 0.0000 80.0406 6.3548 49.3703 -104.0265 59.2434 -72.1164 0.0000 -0.0000 -10.3743 -45.1646 -35.4422 30.2517 7.1250 -0.0000 -0.0000 -22.4456 -74.2539 15.7032
-9.6898 17.9259 -16.7149 160.2670 92.2748 164.5950 0.0000 0.0000 0.0000 -12.7659 -15.1062 -1.7973 1.3732 7.4159 20.9535 1.6734 1.7626 -25.1364 0.5134 -4.5929 -12.7508 0.0000 0.0000 0.0000 12.2790 -3.1013 5.2419 0.0000 0.0000 -0.0000 0.5548 -15.5693 -14.8363 -0.0456 1.3782 -3.7900 0.5963 0.9186 1.3262 1.7054 1.3413 -2.9374 1.3590 0.6945 -3.7929 -5.4605 -3.8717 -23.9914 3.0136 -4.0786 30.8176 1.4217 -1.7831 14.9298 0.0000 0.0000 0.0000 -82.1648 -8.9365 61.1417 100.9995 -59.5379 -69.5111 -0.0000 0.0000 -58.1873 40.7071 15.0607 12.6016 -7.1250 0.0000 -0.0000 13.0101 49.0779 1.3288 0.0000 0.0000 0.0000 80.2938 7.1717 49.2939 -103.1330 59.3382 -71.3482 0.0000 -0.0000 -10.9887 -44.7690 -35.6326 30.0239 7.1250 -0.0000 -0.0000 -21.5603 -74.3382 15.1079
-9.6880 17.9335 -16.7209 160.6480 92.3207 165.0710 0.0000 0.0000 0.0000 -12.6929 -14.7593 -2.0695 1.3745 7.4192 20.9635 1.6321 1.6485 -24.7869 0.5494 -4.7485 -13.1925 0.0000 0.0000 0.0000 12.2795 -3.0213 5.1248 0.0000 0.0000 -0.0000 0.5730 -15.6787 -14.7536 -0.0538 1.4963 -4.1154 0.7348 0.9365 1.3322 1.6377 1.3667 -2.9317 1.2103 0.7016 -3.7859 -5.6198 -3.8989 -23.9256 3.2999 -4.1602 30.6810 1.5506 -1.7964 14.8707 0.0000 0.0000 0.0000 -82.0289 -9.7782 60.7997 100.5997 -59.5712 -69.1664 -0.0000 0.0000 -58.0728 40.6346 14.9764 12.5038 -7.1250 0.0000 -0.0000 12.9264 48.9591 1.2816 0.0000 0.0000 0.0000 80.6558 7.9770 49.1555 -102.1916 59.4309 -70.5381 0.0000 -0.0000 -11.6603 -44.4272 -35.7541 29.8015 7.1250 -0.0000 -0.0000 -20.7856 -74.3635 14.5648
-9.6858 17.9406 -16.7262 160.6700 92.3535 165.1870 0.0000 0.0000 0.0000 -12.6167 -14.4429 -2.3246 1.3755 7.4219 20.9713 1.6001 1.4934 -24.4870 0.5803 -4.8778 -13.5605 0.0000 0.0000 0.0000 12.2871 -2.9623 5.0182 0.0000 0.0000 -0.0000 0.5846 -15.7507 -14.7062 -0.0598 1.5775 -4.3393 0.8728 0.9673 1.3438 1.5744 1.4100 -2.9330 1.0657 0.7179 -3.7895 -5.9383 -3.9829 -23.7762 3.7556 -4.3238 30.4592 1.7597 -1.8401 14.7706 -0.0000 -0.0000 0.0000 -81.9339 -10.6688 60.4591 100.0137 -59.6177 -68.6610 -0.0000 0.0000 -58.0322 40.4140 14.9369 12.3787 -7.1250 0.0000 -0.0000 12.6947 48.8672 1.2289 -0.0000 -0.0000 0.0000 81.0730 8.7403 48.9755 -101.3026 59.5117 -69.7723 0.0000 -0.0000 -12.3065 -44.2970 -35.7732 29.7007 7.1250 -0.0000 -0.0000 -20.4875 -74.3434 14.3429
-9.6834 17.9461 -16.7309 160.6550 92.3827 165.2510 0.0000 0.0000 0.0000 -12.5562 -14.1763 -2.5427 1.3777 7.4276 20.9886 1.5811 1.3119 -24.2733 0.6008 -4.9619 -13.7999 0.0000 0.0000 0.0000 12.2909 -2.9147 4.9369 0.0000 -0.0000 0.0000 0.5915 -15.7936 -14.6787 -0.0646 1.6394 -4.5102 0.9738 1.0098 1.3802 1.5325 1.4694 -2.9429 0.9624 0.7437 -3.8176 -6.2980 -4.0874 -23.6063 4.2241 -4.5053 30.2147 1.9765 -1.8950 14.6612 -0.0000 -0.0000 0.0000 -81.9105 -11.5956 60.1222 99.2115 -59.6769 -67.9687 -0.0000 0.0000 -58.0592 40.0596 14.9946 12.2738 -7.1250 0.0000 -0.0000 12.3346 48.8697 1.1938 -0.0000 -0.0000 0.0000 81.5550 9.4672 48.7437 -100.4706 59.5817 -69.0551 0.0000 -0.0000 -12.7919 -44.4653 -35.6897 29.7957 7.1250 -0.0000 -0.0000 -20.8644 -74.3053 14.5955
-9.6809 17.9494 -16.7349 160.8040 92.4081 165.4530 0.0000 0.0000 0.0000 -12.5247 -13.9715 -2.7158 1.3830 7.4411 21.0290 1.5745 1.1303 -24.1533 0.6126 -5.0095 -13.9357 0.0000 0.0000 0.0000 12.2822 -2.8783 4.8901 0.0000 0.0000 -0.0000 0.5957 -15.8184 -14.6585 -0.0689 1.6933 -4.6588 1.0184 1.0570 1.4528 1.5178 1.5353 -2.9577 0.9177 0.7748 -3.8732 -6.5683 -4.1746 -23.4844 4.5516 -4.6451 30.0158 2.1276 -1.9418 14.5748 0.0000 0.0000 0.0000 -81.9626 -12.5471 59.7989 98.1779 -59.7458 -67.0763 -0.0000 0.0000 -58.1404 39.6228 15.1507 12.2100 -7.1250 0.0000 -0.0000 11.8975 48.9775 1.1823 0.0000 0.0000 0.0000 82.1071 10.1755 48.4653 -99.6706 59.6437 -68.3650 0.0000 -0.0000 -13.0168 -44.9343 -35.5435 30.1133 7.1250 -0.0000 -0.0000 -21.9288 -74.2927 15.3511
-9.6792 17.9504 -16.7383 161.0870 92.4196 165.7620 0.0000 0.0000 0.0000 -12.5197 -13.8258 -2.8546 1.3924 7.4654 21.1016 1.5758 0.9685 -24.1017 0.6224 -5.0484 -14.0467 0.0000 0.0000 0.0000 12.2601 -2.8626 4.8757 0.0000 -0.0000 0.0000 0.5984 -15.8329 -14.6421 -0.0723 1.7352 -4.7745 1.0100 1.0987 1.5600 1.5260 1.5935 -2.9707 0.9257 0.8039 -3.9485 -6.6687 -4.2217 -23.4529 4.6573 -4.7127 29.9032 2.1728 -1.9687 14.5295 0.0000 0.0000 0.0000 -82.0738 -13.5133 59.4991 96.9173 -59.8184 -65.9869 -0.0000 0.0000 -58.2691 39.1801 15.3512 12.1754 -7.1250 0.0000 -0.0000 11.4556 49.1376 1.1830 0.0000 0.0000 0.0000 82.7391 10.8938 48.1445 -98.8534 59.7017 -67.6596 0.0000 -0.0000 -12.9376 -45.5947 -35.4015 30.6024 7.1250 -0.0000 -0.0000 -23.4524 -74.3420 16.4692
-9.6788 17.9498 -16.7409 161.2670 92.4034 165.9480 0.0000 0.0000 0.0000 -12.5231 -13.7222 -2.9857 1.4061 7.5006 21.2073 1.5788 0.8286 -24.0721 0.6366 -5.1047 -14.2075 0.0000 0.0000 0.0000 12.2331 -2.8799 4.8786 0.0000 -0.0000 0.0000 0.5993 -15.8376 -14.6360 -0.0735 1.7488 -4.8120 0.9688 1.1248 1.6872 1.5482 1.6304 -2.9759 0.9671 0.8235 -4.0282 -6.6060 -4.2271 -23.5085 4.5696 -4.7134 29.8689 2.1244 -1.9748 14.5214 -0.0000 -0.0000 0.0000 -82.2201 -14.4839 59.2243 95.4479 -59.8876 -64.7162 -0.0000 0.0000 -58.4504 38.8079 15.5106 12.1377 -7.1250 0.0000 -0.0000 11.0816 49.2602 1.1772 -0.0000 -0.0000 0.0000 83.4488 11.6482 47.7859 -97.9764 59.7582 -66.9021 0.0000 -0.0000 -12.5809 -46.2660 -35.3266 31.1476 7.1250 -0.0000 -0.0000 -25.0478 -74.4646 17.6862
